<?xml version="1.0" standalone="no"?>
<!DOCTYPE svg PUBLIC "-//W3C//DTD SVG 20010904//EN"
 "http://www.w3.org/TR/2001/REC-SVG-20010904/DTD/svg10.dtd">
<svg version="1.0" xmlns="http://www.w3.org/2000/svg"
 width="736.000000pt" height="736.000000pt" viewBox="0 0 736.000000 736.000000"
 preserveAspectRatio="xMidYMid meet">

<g transform="translate(0.000000,736.000000) scale(0.100000,-0.100000)"
fill="#000000" stroke="none">
<path d="M4642 6614 c-110 -19 -173 -40 -269 -89 -163 -84 -308 -210 -431
-377 -24 -32 -49 -58 -57 -58 -19 0 -38 -37 -31 -57 4 -9 -9 -52 -28 -97 -61
-142 -79 -227 -73 -336 10 -183 79 -334 220 -483 39 -41 50 -48 59 -36 8 11 9
11 4 -3 -6 -21 21 -42 129 -95 139 -70 236 -90 460 -97 l159 -6 23 -87 c29
-108 60 -162 135 -235 54 -51 111 -83 220 -121 16 -6 15 -12 -11 -69 -60 -135
-66 -163 -64 -303 2 -147 21 -262 57 -340 24 -54 24 -65 -1 -65 -8 0 -33 -8
-56 -19 -23 -10 -67 -29 -97 -42 -81 -34 -251 -123 -343 -180 -79 -49 -260
-192 -347 -275 -51 -48 -102 -69 -211 -84 -77 -11 -341 -16 -356 -7 -5 3 -47
11 -93 17 -90 12 -201 51 -270 95 -74 46 -222 117 -320 152 -52 19 -95 33 -95
32 0 -1 -31 8 -70 19 -221 65 -470 96 -775 97 -369 0 -645 -46 -893 -151 l-77
-32 -26 33 c-31 41 -39 69 -65 230 -18 108 -21 154 -15 275 3 80 10 174 16
210 11 61 10 66 -10 82 -28 23 -50 11 -66 -34 l-11 -33 -16 35 c-9 19 -32 100
-51 180 -32 129 -45 201 -61 320 -6 41 -6 469 -1 520 7 71 46 200 82 271 48
97 167 228 274 303 144 101 339 154 702 191 79 8 193 20 253 26 70 7 190 9
329 5 185 -5 221 -3 230 9 12 15 260 82 406 110 118 22 377 30 543 16 153 -13
182 -7 168 32 -13 35 -46 45 -206 57 -164 12 -335 7 -485 -17 -96 -15 -468
-105 -495 -120 -8 -5 -61 -5 -117 -1 -171 12 -299 4 -728 -43 -197 -21 -400
-67 -509 -115 -74 -33 -151 -85 -152 -104 0 -11 -2 -11 -6 -2 -5 14 -78 -40
-124 -93 -220 -252 -266 -400 -256 -830 7 -268 13 -319 73 -559 46 -187 80
-266 113 -266 18 0 19 -12 19 -187 0 -104 4 -204 9 -223 8 -30 6 -36 -11 -45
-11 -6 -34 -34 -51 -62 -16 -29 -46 -76 -66 -105 -88 -129 -209 -434 -209
-527 1 -98 50 -225 98 -253 29 -17 211 -88 226 -88 5 0 27 -15 50 -33 23 -19
52 -40 66 -47 14 -7 57 -45 95 -84 110 -114 327 -265 361 -252 9 3 12 1 9 -4
-11 -18 193 -99 350 -139 164 -42 272 -54 475 -54 107 0 218 5 246 10 l52 10
5 -60 c4 -45 1 -68 -14 -100 -21 -47 -25 -127 -8 -160 34 -64 93 -91 201 -92
l87 0 -6 -101 -6 -101 34 -20 c19 -12 68 -31 109 -43 41 -11 103 -33 136 -48
61 -27 62 -27 82 -92 12 -36 28 -91 37 -122 21 -79 65 -121 152 -148 90 -28
212 -38 224 -19 6 10 9 10 9 2 0 -18 55 -16 93 3 51 26 116 83 134 117 9 18
18 27 20 20 2 -6 27 -27 56 -45 49 -32 56 -33 147 -33 168 1 242 40 301 160
27 56 31 74 31 144 -1 44 -4 96 -8 116 -6 32 -4 37 15 42 41 11 166 74 191 97
15 14 43 26 68 29 58 7 118 48 138 95 42 97 38 121 -28 189 l-41 42 35 39 c20
22 41 56 48 77 17 52 7 146 -20 190 -12 20 -21 37 -19 39 13 11 176 67 234 81
38 9 80 22 92 31 13 8 76 30 140 48 271 79 483 173 663 295 105 70 134 93 223
178 113 108 191 225 223 334 17 57 34 76 101 111 23 12 53 33 67 47 34 37 129
277 127 321 -2 19 -3 42 -3 50 -1 8 -11 31 -23 50 -41 66 -72 125 -84 162 -11
35 -10 39 22 85 33 46 88 148 120 223 37 86 112 328 131 422 33 168 -15 330
-131 439 -31 29 -120 100 -131 105 -1 1 5 43 14 95 39 229 -26 707 -122 890
-20 38 -40 69 -45 69 -5 0 -9 6 -9 14 0 23 -95 139 -151 185 -30 24 -77 54
-105 67 -76 36 -224 64 -336 64 -94 0 -237 -14 -268 -27 -8 -3 -19 -5 -23 -4
-7 1 -123 -24 -159 -35 -10 -3 -35 12 -66 39 -92 82 -243 152 -381 177 -76 14
-229 11 -329 -6z m368 -90 c86 -20 212 -82 279 -137 131 -109 208 -301 246
-616 7 -58 18 -107 24 -109 29 -10 4 -17 -64 -19 -101 -3 -182 -24 -290 -78
-154 -77 -278 -198 -301 -295 -4 -14 -17 -36 -30 -50 -28 -31 -59 -107 -75
-189 l-12 -63 -178 4 c-99 1 -179 5 -179 8 0 4 -28 12 -62 19 -81 16 -228 88
-296 144 -93 77 -182 214 -212 327 -38 143 -30 248 31 399 85 209 201 358 379
490 218 162 493 223 740 165z m1063 -163 c96 -25 140 -48 205 -106 104 -94
189 -250 227 -421 50 -223 72 -570 42 -666 l-12 -38 -55 26 c-110 51 -195 69
-321 67 l-116 -2 -13 42 c-17 57 -68 157 -80 157 -6 0 -10 6 -10 14 0 18 -90
99 -144 131 -34 20 -122 54 -186 72 -13 4 -13 5 0 13 21 13 17 117 -9 262 -28
155 -64 274 -106 352 -19 36 -32 66 -28 67 5 0 60 11 123 24 157 31 374 33
483 6z m-437 -824 c89 -25 196 -91 231 -140 58 -83 109 -224 119 -330 12 -141
-26 -234 -145 -352 -96 -95 -214 -152 -386 -187 -283 -56 -483 35 -555 254
-19 59 -22 83 -18 166 6 108 35 203 73 237 12 11 30 40 39 65 25 70 48 102
107 147 123 95 289 161 405 162 29 1 87 -9 130 -22z m656 -412 c76 -15 208
-64 237 -88 9 -7 33 -21 54 -31 112 -57 210 -199 223 -322 18 -175 -153 -645
-287 -789 -32 -34 -55 -66 -51 -70 4 -5 1 -5 -5 -1 -8 4 -55 -28 -122 -84 -60
-49 -111 -90 -114 -90 -3 0 -28 15 -55 34 -75 50 -167 60 -462 53 -192 -5
-335 -18 -443 -40 -16 -3 -52 71 -72 148 -22 86 -31 269 -16 347 13 64 49 152
82 199 17 24 28 27 96 33 268 24 453 115 610 301 80 95 118 214 107 341 l-6
71 74 2 c41 1 108 -5 150 -14z m252 -1371 c4 -15 25 -58 46 -96 53 -92 52
-120 -6 -259 -49 -115 -54 -122 -146 -168 -16 -8 -28 -18 -28 -22 0 -4 -11
-20 -23 -36 -13 -15 -36 -60 -51 -100 -29 -75 -97 -180 -163 -249 -336 -348
-1030 -596 -1530 -545 -207 21 -382 91 -453 181 -70 88 -91 205 -45 254 26 28
30 43 17 62 -11 17 -40 14 -123 -12 -42 -13 -109 -29 -150 -35 -87 -13 -238
-5 -298 16 -67 23 -68 22 -111 -154 -91 -378 -555 -641 -1135 -641 -335 0
-677 94 -917 251 -90 59 -221 173 -254 220 -14 21 -36 41 -48 45 -11 3 -47 24
-79 46 -32 22 -93 52 -135 68 -130 46 -153 60 -178 110 -23 48 -36 144 -19
145 37 3 136 18 168 26 32 9 37 14 37 40 0 39 -16 44 -109 32 -42 -6 -77 -9
-79 -8 -6 5 63 186 98 255 50 100 149 246 154 229 2 -8 13 -43 24 -79 18 -56
18 -68 6 -91 -10 -21 -22 -27 -59 -31 -50 -6 -111 -42 -122 -73 -11 -34 -2
-89 18 -110 40 -41 162 -13 194 45 8 14 16 37 20 53 5 23 22 35 118 81 252
122 537 177 922 176 359 0 669 -51 950 -157 77 -29 223 -100 269 -132 17 -11
33 -18 37 -15 4 2 9 -3 13 -11 3 -8 11 -15 17 -15 7 0 40 -11 75 -25 176 -71
506 -83 738 -29 106 25 118 30 136 59 21 34 23 35 170 156 58 48 138 108 178
134 103 66 325 178 397 199 33 9 76 23 95 31 139 53 313 76 590 78 257 2 321
-9 384 -64 l44 -39 114 0 c111 0 115 1 138 27 21 25 22 30 12 82 l-11 56 35
33 c41 39 50 40 58 6z m-164 -114 c0 -5 -4 -10 -10 -10 -5 0 -10 5 -10 10 0 6
5 10 10 10 6 0 10 -4 10 -10z m-5424 -535 c-11 -8 -27 -15 -35 -15 -13 1 -12
4 3 15 11 8 27 15 35 15 13 -1 12 -4 -3 -15z m3082 -492 c5 -84 57 -188 125
-247 116 -102 296 -163 515 -173 68 -3 119 -9 115 -13 -4 -4 -57 -22 -118 -40
-60 -17 -132 -38 -160 -46 -71 -21 -269 -52 -410 -64 -66 -5 -181 -17 -255
-25 -243 -27 -441 -37 -613 -30 -218 8 -232 13 -149 52 77 36 193 117 257 180
119 114 187 230 224 377 10 39 22 70 27 69 138 -26 262 -25 361 2 78 22 78 22
81 -42z m627 -593 c-25 -26 -36 -30 -74 -28 -37 2 -47 -2 -67 -26 -28 -32 -29
-38 -10 -98 l13 -45 -56 -44 c-57 -45 -112 -72 -286 -139 -97 -37 -209 -65
-225 -55 -12 7 -26 222 -16 233 2 2 38 -9 80 -23 43 -15 100 -29 129 -32 48
-5 55 -3 90 29 28 25 43 50 60 102 l22 69 93 19 c51 10 132 31 180 47 48 15
89 26 91 24 3 -2 -8 -17 -24 -33z m150 -39 c11 -49 -14 -121 -49 -142 -40 -24
-93 -24 -133 1 -47 28 -43 53 11 68 32 8 56 25 92 65 52 58 67 60 79 8z m-601
-79 c-8 -20 -19 -41 -25 -47 -20 -20 -191 33 -193 60 -1 6 42 13 98 17 54 4
103 9 110 11 22 8 26 -5 10 -41z m-1269 11 c71 -19 211 -33 346 -33 l116 0 12
-52 c16 -74 65 -156 97 -164 39 -10 137 2 173 20 17 9 52 36 77 60 71 69 79
67 92 -21 14 -85 7 -105 -51 -161 -33 -32 -37 -33 -145 -40 -152 -10 -266 6
-432 61 -189 62 -205 71 -235 131 -14 27 -25 64 -25 81 0 52 -41 73 -75 39
-13 -13 -28 -15 -74 -11 -86 9 -91 12 -78 52 9 30 16 35 66 48 31 8 63 12 71
9 8 -3 38 -11 65 -19z m955 -1 c0 -12 -63 -40 -77 -35 -19 7 -16 31 5 36 30 8
72 7 72 -1z m-175 -43 c15 -46 -48 -106 -125 -118 -57 -9 -62 -6 -85 59 -24
68 -24 69 63 73 42 1 91 4 109 5 24 2 33 -3 38 -19z m891 -119 c6 -6 34 -13
62 -17 48 -5 54 -9 97 -64 l46 -59 -17 -36 c-22 -46 -69 -68 -112 -53 -39 13
-70 -2 -83 -41 -8 -21 -26 -35 -80 -60 -39 -18 -87 -34 -108 -37 -34 -5 -40
-2 -61 28 -41 61 -66 72 -95 43 -11 -11 -14 -26 -9 -49 6 -32 5 -33 -43 -43
-26 -6 -77 -14 -112 -17 -65 -5 -149 -39 -158 -62 -3 -7 -9 -13 -14 -13 -6 0
-23 -10 -39 -21 -24 -19 -38 -21 -87 -17 -73 7 -103 21 -128 61 -36 56 -108
33 -86 -26 9 -23 7 -26 -27 -32 -20 -4 -50 -8 -67 -10 -16 -1 -60 -5 -97 -10
-36 -4 -82 -5 -102 -1 -33 6 -38 11 -48 52 -7 25 -20 50 -30 55 -17 9 -48 3
-48 -10 0 -4 -6 -15 -12 -24 -12 -15 -19 -15 -88 7 l-75 23 2 49 c3 65 25 194
34 194 3 0 28 -9 55 -19 82 -32 156 -52 170 -47 8 3 13 0 11 -6 -1 -7 30 -20
73 -31 108 -29 393 -31 463 -4 40 16 47 22 42 40 -2 12 -2 16 1 9 5 -10 10
-10 25 4 16 14 23 15 49 4 54 -22 179 -1 295 50 28 12 61 26 75 30 89 29 197
84 243 124 54 48 66 53 83 36z m-1778 -16 c51 -7 53 -8 81 -61 17 -30 27 -61
24 -69 -10 -26 -60 -44 -120 -44 -102 0 -139 40 -113 120 20 60 32 65 128 54z
m1541 -508 c13 -91 2 -164 -34 -218 -35 -53 -76 -71 -170 -76 -94 -5 -144 11
-172 55 -10 15 -23 34 -30 41 -8 9 -13 42 -13 90 l1 77 52 33 c43 27 62 32
112 32 33 0 87 9 120 20 33 10 74 19 91 19 l32 1 11 -74z m-649 -71 c23 -8 64
-15 91 -15 l49 0 0 -58 c0 -82 -14 -120 -62 -169 -65 -67 -127 -75 -289 -38
-102 23 -116 38 -148 158 -12 42 -21 79 -21 80 0 2 53 12 118 21 97 14 152 23
213 35 4 0 26 -6 49 -14z"/>
<path d="M5695 3525 c-259 -45 -472 -117 -733 -250 -92 -46 -214 -114 -272
-150 -58 -36 -114 -72 -125 -78 -108 -65 -235 -179 -235 -213 0 -12 -6 -24
-12 -26 -21 -7 -23 -161 -3 -214 9 -24 21 -44 26 -44 5 0 9 -6 9 -13 0 -15 59
-73 106 -105 44 -30 185 -62 274 -62 82 0 373 39 485 64 93 22 247 67 260 76
6 4 22 10 36 13 56 14 362 165 409 202 28 22 66 48 85 58 37 20 111 101 165
182 18 28 45 64 58 80 44 52 80 142 87 215 6 55 10 69 26 73 50 13 22 87 -32
87 -18 0 -56 15 -89 35 -32 19 -60 35 -64 35 -3 0 -25 9 -49 20 -81 37 -220
54 -230 28 -4 -10 -6 -10 -6 0 -1 16 -21 14 -176 -13z m383 -95 c38 -17 52
-29 53 -44 0 -12 2 -36 4 -55 1 -19 -9 -105 -25 -192 l-27 -157 -49 -57 c-27
-31 -65 -65 -85 -75 -19 -10 -55 -35 -79 -55 -23 -20 -64 -45 -89 -57 -25 -11
-89 -41 -141 -66 -204 -96 -393 -152 -636 -187 -376 -55 -524 -22 -604 133
-21 40 -22 49 -12 110 6 36 20 78 30 92 36 48 148 130 312 229 389 233 668
343 1020 401 30 5 105 8 165 6 91 -2 119 -6 163 -26z m152 -159 c-5 -35 -12
-66 -16 -70 -4 -3 -4 9 0 28 3 18 6 54 6 79 0 29 3 43 10 36 6 -6 6 -33 0 -73z"/>
<path d="M5185 3111 c-93 -45 -198 -189 -208 -287 -10 -96 44 -152 149 -153
34 -1 53 7 100 42 71 52 112 109 131 180 21 81 2 181 -41 217 -27 21 -87 22
-131 1z"/>
<path d="M1775 3219 c-90 -7 -233 -39 -315 -71 -30 -11 -64 -24 -75 -27 -69
-24 -200 -100 -250 -146 -58 -54 -58 -54 -52 -99 12 -82 49 -180 97 -251 50
-74 221 -246 312 -313 114 -84 280 -159 447 -202 237 -60 703 -85 731 -39 4 6
12 9 18 5 25 -15 319 70 399 116 90 51 131 96 197 216 49 88 68 134 76 185 14
76 8 98 -44 177 -92 138 -119 162 -299 262 -148 82 -186 93 -497 147 -203 35
-563 54 -745 40z m490 -94 c148 -15 383 -52 499 -79 130 -31 362 -163 423
-242 121 -155 122 -186 9 -376 -75 -128 -132 -168 -321 -226 -189 -57 -301
-75 -432 -69 -336 15 -577 67 -757 163 -71 38 -86 50 -86 69 0 25 -96 147
-131 165 -10 6 -33 39 -50 73 -17 33 -42 79 -56 100 -21 34 -93 232 -93 257 0
32 216 118 400 159 108 24 392 27 595 6z m-1050 -282 c10 -38 40 -111 67 -163
26 -52 48 -96 48 -99 0 -25 -108 123 -127 175 -25 69 -35 113 -28 133 11 36
21 24 40 -46z"/>
<path d="M2294 2803 c-29 -6 -54 -54 -54 -104 0 -119 104 -263 223 -307 69
-26 87 -27 155 -7 97 29 114 90 58 205 -61 126 -116 175 -231 204 -56 15 -106
18 -151 9z"/>
<path d="M1933 5746 c-45 -20 -119 -99 -133 -141 -7 -22 -16 -32 -25 -29 -37
15 -174 -59 -218 -118 -48 -63 -60 -174 -23 -211 10 -10 13 -31 9 -78 -6 -74
19 -222 48 -283 11 -22 19 -41 19 -41 0 -1 -25 -21 -57 -44 l-56 -43 -56 17
c-31 9 -75 30 -98 46 -50 35 -98 38 -124 7 -20 -23 -23 -46 -19 -174 1 -48 -2
-84 -9 -88 -5 -4 -31 -34 -57 -68 -40 -53 -45 -65 -38 -87 11 -31 103 -89 154
-97 34 -6 37 -10 69 -92 37 -94 92 -162 130 -162 48 0 108 52 201 171 32 42
41 47 124 69 148 41 161 67 80 172 -49 65 -49 67 6 187 l32 69 106 5 c171 7
195 18 329 155 63 64 121 127 130 139 20 29 43 201 34 245 -9 36 -3 98 8 98 4
0 15 14 25 30 24 41 14 81 -30 119 -45 40 -94 66 -94 49 0 -7 -5 -6 -12 4 -19
23 -85 42 -152 43 l-60 0 -25 49 c-14 27 -38 59 -53 69 -35 26 -122 32 -165
13z m112 -82 c9 -4 27 -28 41 -55 13 -27 31 -49 38 -49 8 0 18 -9 21 -21 6
-19 12 -20 68 -14 68 7 151 -15 208 -55 l30 -22 -26 -20 c-20 -16 -25 -28 -25
-65 l0 -46 -62 8 c-88 10 -96 9 -132 -19 -46 -35 -92 -36 -148 -3 -61 36 -95
35 -111 0 -18 -41 -37 -52 -91 -53 -35 0 -62 7 -93 25 -33 20 -47 24 -62 15
-24 -12 -71 -13 -90 -1 -10 7 -12 22 -8 57 4 39 12 54 39 77 52 45 105 68 147
66 52 -4 105 33 98 68 -3 18 4 35 27 62 17 20 35 39 41 43 12 9 68 10 90 2z
m322 -434 l45 0 -7 -57 c-4 -32 -12 -70 -19 -86 -6 -15 -60 -76 -119 -136
-124 -126 -132 -129 -312 -133 -89 -2 -109 1 -178 26 -92 34 -103 47 -128 154
-22 89 -24 165 -6 180 27 22 73 23 118 3 71 -33 179 -22 228 23 24 22 34 20
20 -3 -13 -19 -6 -51 10 -51 5 0 11 9 14 20 3 11 13 20 24 20 138 3 150 5 184
31 27 21 39 25 57 18 13 -5 44 -9 69 -9z m-621 -466 c30 -8 54 -19 54 -24 0
-4 -14 -39 -31 -77 -17 -37 -33 -89 -36 -115 -5 -41 -2 -50 28 -90 19 -23 38
-46 43 -49 8 -7 -13 -15 -115 -43 -52 -15 -61 -22 -117 -93 -33 -43 -72 -89
-87 -103 l-27 -25 -18 23 c-10 12 -33 60 -50 105 -18 45 -36 87 -42 94 -5 7
-35 18 -66 24 -78 18 -91 32 -67 72 11 18 27 39 37 47 25 21 31 50 28 153 -1
48 0 87 2 87 2 0 24 -11 50 -24 25 -13 78 -31 117 -41 l70 -17 58 44 c62 48
93 67 106 68 5 0 33 -7 63 -16z m-216 -648 c0 -3 -4 -8 -10 -11 -5 -3 -10 -1
-10 4 0 6 5 11 10 11 6 0 10 -2 10 -4z"/>
<path d="M2224 5119 c-4 -7 -1 -10 7 -7 22 8 49 -11 49 -34 0 -15 3 -19 10
-12 19 19 -6 64 -34 64 -14 0 -28 -5 -32 -11z"/>
<path d="M1744 5088 c-8 -11 -9 -24 -5 -50 0 -4 11 3 24 15 21 20 20 47 -3 47
-4 0 -12 -6 -16 -12z"/>
<path d="M1924 5025 c-4 -8 -3 -27 2 -43 l8 -27 4 27 c2 15 13 35 25 43 21 15
21 15 -6 15 -15 0 -30 -7 -33 -15z"/>
</g>
</svg>
